<?xml version="1.0" standalone="no"?>
<!DOCTYPE svg PUBLIC "-//W3C//DTD SVG 20010904//EN"
 "http://www.w3.org/TR/2001/REC-SVG-20010904/DTD/svg10.dtd">
<svg version="1.0" xmlns="http://www.w3.org/2000/svg"
 width="500.000000pt" height="500.000000pt" viewBox="0 0 500.000000 500.000000"
 preserveAspectRatio="xMidYMid meet">

<g transform="translate(0.000000,500.000000) scale(0.100000,-0.100000)"
fill="#000000" stroke="none">
<path d="M1373 3657 c-367 -249 -536 -370 -543 -387 -12 -31 -190 -1145 -190
-1191 0 -19 4 -39 8 -44 7 -11 89 -88 307 -291 72 -66 243 -226 380 -354 138
-128 294 -273 347 -322 l98 -88 672 0 672 0 155 118 c86 64 329 248 539 406
211 159 390 299 397 310 13 21 145 1068 145 1151 0 37 -7 46 -117 155 -107
105 -632 614 -844 818 l-85 82 -705 0 -704 -1 -532 -362z m1757 188 c0 -3 -60
-125 -134 -273 l-134 -267 -546 -173 c-301 -95 -551 -172 -555 -170 -4 2 49
202 118 445 l126 443 563 0 c309 0 562 -2 562 -5z m520 -390 c85 -83 234 -227
330 -322 l175 -172 -100 -103 c-55 -57 -212 -219 -349 -361 -137 -142 -252
-254 -256 -250 -4 4 -57 123 -118 263 -60 140 -155 360 -211 488 l-101 233
141 281 141 281 96 -94 c53 -52 167 -162 252 -244z m-1981 -158 l-122 -426
-344 -283 c-189 -156 -347 -284 -351 -286 -9 -3 124 856 136 877 8 14 795 551
800 546 2 -1 -52 -194 -119 -428z m1289 -354 c44 -104 138 -318 207 -476 69
-159 125 -293 125 -298 0 -5 -254 -9 -647 -9 l-648 0 -127 302 c-70 166 -126
304 -124 306 3 3 1109 357 1127 361 3 0 42 -83 87 -186z m1157 -619 c-25 -208
-48 -388 -50 -400 -3 -13 -149 -130 -400 -319 -217 -164 -397 -296 -399 -294
-2 2 50 166 116 363 l119 359 221 231 c322 335 431 446 435 442 2 -1 -17 -173
-42 -382z m-2390 38 l128 -304 -50 -399 c-27 -219 -52 -401 -56 -405 -7 -7
-885 807 -886 821 0 14 723 605 730 597 3 -4 64 -144 134 -310z m1575 -379 c0
-4 -62 -193 -137 -420 l-138 -413 -557 0 -557 0 4 28 c3 15 25 189 50 387 24
198 47 375 50 393 l6 32 639 0 c352 0 640 -3 640 -7z"/>
</g>
</svg>
